<mxfile host="app.diagrams.net" modified="2022-12-06T09:39:43.606Z" agent="5.0 (Windows NT 10.0; Win64; x64) AppleWebKit/537.36 (KHTML, like Gecko) Chrome/108.0.0.0 Safari/537.36" version="20.6.0" etag="SA5VOf6G5_D62n5GoES0" type="github" pages="2">
  <diagram id="OvYA2EbkqjAhUJHGd9VV" name="Page-1">
    <mxGraphModel dx="1678" dy="498" grid="1" gridSize="10" guides="1" tooltips="1" connect="1" arrows="1" fold="1" page="1" pageScale="1" pageWidth="850" pageHeight="1100" math="0" shadow="0">
      <root>
        <mxCell id="0" />
        <mxCell id="1" parent="0" />
        <mxCell id="E4Dh_VUF76rLLpkzOomr-1" value="ARDUINO UNO" style="rounded=0;whiteSpace=wrap;html=1;" vertex="1" parent="1">
          <mxGeometry x="110" y="200" width="120" height="60" as="geometry" />
        </mxCell>
        <mxCell id="E4Dh_VUF76rLLpkzOomr-2" value="BREADBOARD" style="rounded=0;whiteSpace=wrap;html=1;" vertex="1" parent="1">
          <mxGeometry x="310" y="200" width="120" height="60" as="geometry" />
        </mxCell>
        <mxCell id="E4Dh_VUF76rLLpkzOomr-3" value="IR SENSOR" style="triangle;whiteSpace=wrap;html=1;" vertex="1" parent="1">
          <mxGeometry x="290" width="60" height="80" as="geometry" />
        </mxCell>
        <mxCell id="E4Dh_VUF76rLLpkzOomr-4" value="IR SENSOR" style="triangle;whiteSpace=wrap;html=1;" vertex="1" parent="1">
          <mxGeometry x="510" y="50" width="60" height="80" as="geometry" />
        </mxCell>
        <mxCell id="E4Dh_VUF76rLLpkzOomr-5" value="SG90 SERVO" style="shape=cylinder3;whiteSpace=wrap;html=1;boundedLbl=1;backgroundOutline=1;size=15;" vertex="1" parent="1">
          <mxGeometry x="290" y="330" width="60" height="80" as="geometry" />
        </mxCell>
        <mxCell id="E4Dh_VUF76rLLpkzOomr-6" value="SG90 SERVO" style="shape=cylinder3;whiteSpace=wrap;html=1;boundedLbl=1;backgroundOutline=1;size=15;" vertex="1" parent="1">
          <mxGeometry x="450" y="330" width="60" height="80" as="geometry" />
        </mxCell>
        <mxCell id="E4Dh_VUF76rLLpkzOomr-7" value="ESP8266 V3" style="shape=parallelogram;perimeter=parallelogramPerimeter;whiteSpace=wrap;html=1;fixedSize=1;" vertex="1" parent="1">
          <mxGeometry x="-10" y="20" width="120" height="60" as="geometry" />
        </mxCell>
        <mxCell id="E4Dh_VUF76rLLpkzOomr-9" value="2" style="endArrow=none;html=1;rounded=0;entryX=0.75;entryY=1;entryDx=0;entryDy=0;" edge="1" parent="1" target="E4Dh_VUF76rLLpkzOomr-7">
          <mxGeometry width="50" height="50" relative="1" as="geometry">
            <mxPoint x="200" y="200" as="sourcePoint" />
            <mxPoint x="250" y="150" as="targetPoint" />
          </mxGeometry>
        </mxCell>
        <mxCell id="E4Dh_VUF76rLLpkzOomr-10" value="3" style="endArrow=none;html=1;rounded=0;exitX=0.833;exitY=0;exitDx=0;exitDy=0;exitPerimeter=0;entryX=0.825;entryY=0.99;entryDx=0;entryDy=0;entryPerimeter=0;" edge="1" parent="1" source="E4Dh_VUF76rLLpkzOomr-1" target="E4Dh_VUF76rLLpkzOomr-7">
          <mxGeometry width="50" height="50" relative="1" as="geometry">
            <mxPoint x="220" y="190" as="sourcePoint" />
            <mxPoint x="210" y="120" as="targetPoint" />
          </mxGeometry>
        </mxCell>
        <mxCell id="E4Dh_VUF76rLLpkzOomr-11" value="5V" style="endArrow=none;html=1;rounded=0;exitX=0.581;exitY=1.041;exitDx=0;exitDy=0;exitPerimeter=0;entryX=0.25;entryY=1;entryDx=0;entryDy=0;" edge="1" parent="1" source="E4Dh_VUF76rLLpkzOomr-1" target="E4Dh_VUF76rLLpkzOomr-2">
          <mxGeometry width="50" height="50" relative="1" as="geometry">
            <mxPoint x="400" y="260" as="sourcePoint" />
            <mxPoint x="450" y="210" as="targetPoint" />
            <Array as="points">
              <mxPoint x="180" y="310" />
              <mxPoint x="260" y="310" />
              <mxPoint x="340" y="310" />
            </Array>
          </mxGeometry>
        </mxCell>
        <mxCell id="E4Dh_VUF76rLLpkzOomr-12" value="GND" style="endArrow=none;html=1;rounded=0;exitX=0.627;exitY=1.053;exitDx=0;exitDy=0;exitPerimeter=0;" edge="1" parent="1" source="E4Dh_VUF76rLLpkzOomr-1">
          <mxGeometry width="50" height="50" relative="1" as="geometry">
            <mxPoint x="400" y="260" as="sourcePoint" />
            <mxPoint x="330" y="260" as="targetPoint" />
            <Array as="points">
              <mxPoint x="185" y="290" />
              <mxPoint x="260" y="290" />
              <mxPoint x="300" y="290" />
              <mxPoint x="330" y="290" />
            </Array>
          </mxGeometry>
        </mxCell>
        <mxCell id="E4Dh_VUF76rLLpkzOomr-13" value="5V" style="endArrow=none;html=1;rounded=0;exitX=0.855;exitY=0;exitDx=0;exitDy=4.35;exitPerimeter=0;entryX=0.334;entryY=1.018;entryDx=0;entryDy=0;entryPerimeter=0;" edge="1" parent="1" source="E4Dh_VUF76rLLpkzOomr-5" target="E4Dh_VUF76rLLpkzOomr-2">
          <mxGeometry width="50" height="50" relative="1" as="geometry">
            <mxPoint x="400" y="260" as="sourcePoint" />
            <mxPoint x="450" y="210" as="targetPoint" />
            <Array as="points">
              <mxPoint x="350" y="300" />
            </Array>
          </mxGeometry>
        </mxCell>
        <mxCell id="E4Dh_VUF76rLLpkzOomr-14" value="GND" style="endArrow=none;html=1;rounded=0;exitX=1;exitY=0;exitDx=0;exitDy=15;exitPerimeter=0;entryX=0.432;entryY=1.064;entryDx=0;entryDy=0;entryPerimeter=0;" edge="1" parent="1" source="E4Dh_VUF76rLLpkzOomr-5" target="E4Dh_VUF76rLLpkzOomr-2">
          <mxGeometry x="-0.3533" y="-1" width="50" height="50" relative="1" as="geometry">
            <mxPoint x="400" y="260" as="sourcePoint" />
            <mxPoint x="450" y="210" as="targetPoint" />
            <Array as="points">
              <mxPoint x="362" y="310" />
            </Array>
            <mxPoint as="offset" />
          </mxGeometry>
        </mxCell>
        <mxCell id="E4Dh_VUF76rLLpkzOomr-15" value="PWM PIN 8" style="endArrow=none;html=1;rounded=0;exitX=0;exitY=0;exitDx=0;exitDy=27.5;exitPerimeter=0;entryX=0.5;entryY=0;entryDx=0;entryDy=0;" edge="1" parent="1" source="E4Dh_VUF76rLLpkzOomr-5" target="E4Dh_VUF76rLLpkzOomr-1">
          <mxGeometry x="-0.6774" y="2" width="50" height="50" relative="1" as="geometry">
            <mxPoint x="400" y="260" as="sourcePoint" />
            <mxPoint x="450" y="210" as="targetPoint" />
            <Array as="points">
              <mxPoint x="50" y="358" />
              <mxPoint x="50" y="180" />
              <mxPoint x="170" y="180" />
            </Array>
            <mxPoint as="offset" />
          </mxGeometry>
        </mxCell>
        <mxCell id="E4Dh_VUF76rLLpkzOomr-16" value="PWM PIN 9" style="endArrow=none;html=1;rounded=0;exitX=0.5;exitY=1;exitDx=0;exitDy=0;exitPerimeter=0;entryX=0.414;entryY=0.018;entryDx=0;entryDy=0;entryPerimeter=0;" edge="1" parent="1" source="E4Dh_VUF76rLLpkzOomr-6" target="E4Dh_VUF76rLLpkzOomr-1">
          <mxGeometry x="-0.7708" width="50" height="50" relative="1" as="geometry">
            <mxPoint x="400" y="260" as="sourcePoint" />
            <mxPoint x="450" y="210" as="targetPoint" />
            <Array as="points">
              <mxPoint x="425" y="440" />
              <mxPoint x="220" y="440" />
              <mxPoint x="10" y="440" />
              <mxPoint x="10" y="160" />
              <mxPoint x="160" y="160" />
            </Array>
            <mxPoint as="offset" />
          </mxGeometry>
        </mxCell>
        <mxCell id="E4Dh_VUF76rLLpkzOomr-17" value="GND" style="endArrow=none;html=1;rounded=0;exitX=0.5;exitY=0;exitDx=0;exitDy=0;exitPerimeter=0;entryX=0.572;entryY=1.076;entryDx=0;entryDy=0;entryPerimeter=0;" edge="1" parent="1" source="E4Dh_VUF76rLLpkzOomr-6" target="E4Dh_VUF76rLLpkzOomr-2">
          <mxGeometry width="50" height="50" relative="1" as="geometry">
            <mxPoint x="400" y="260" as="sourcePoint" />
            <mxPoint x="450" y="210" as="targetPoint" />
            <Array as="points">
              <mxPoint x="380" y="300" />
            </Array>
          </mxGeometry>
        </mxCell>
        <mxCell id="E4Dh_VUF76rLLpkzOomr-18" value="5V" style="endArrow=none;html=1;rounded=0;exitX=0.711;exitY=-0.016;exitDx=0;exitDy=0;exitPerimeter=0;entryX=0.75;entryY=1;entryDx=0;entryDy=0;" edge="1" parent="1" source="E4Dh_VUF76rLLpkzOomr-6" target="E4Dh_VUF76rLLpkzOomr-2">
          <mxGeometry x="-0.2857" y="-1" width="50" height="50" relative="1" as="geometry">
            <mxPoint x="400" y="260" as="sourcePoint" />
            <mxPoint x="450" y="210" as="targetPoint" />
            <Array as="points">
              <mxPoint x="400" y="290" />
            </Array>
            <mxPoint as="offset" />
          </mxGeometry>
        </mxCell>
        <mxCell id="E4Dh_VUF76rLLpkzOomr-19" value="GND" style="endArrow=none;html=1;rounded=0;exitX=0.34;exitY=0.867;exitDx=0;exitDy=0;exitPerimeter=0;entryX=0.133;entryY=0.03;entryDx=0;entryDy=0;entryPerimeter=0;" edge="1" parent="1" source="E4Dh_VUF76rLLpkzOomr-3" target="E4Dh_VUF76rLLpkzOomr-2">
          <mxGeometry x="-0.5436" y="-4" width="50" height="50" relative="1" as="geometry">
            <mxPoint x="400" y="260" as="sourcePoint" />
            <mxPoint x="450" y="210" as="targetPoint" />
            <mxPoint as="offset" />
          </mxGeometry>
        </mxCell>
        <mxCell id="E4Dh_VUF76rLLpkzOomr-20" value="VCC" style="endArrow=none;html=1;rounded=0;exitX=0.754;exitY=0.669;exitDx=0;exitDy=0;exitPerimeter=0;entryX=0.25;entryY=0;entryDx=0;entryDy=0;" edge="1" parent="1" source="E4Dh_VUF76rLLpkzOomr-3" target="E4Dh_VUF76rLLpkzOomr-2">
          <mxGeometry x="-0.0933" y="-2" width="50" height="50" relative="1" as="geometry">
            <mxPoint x="400" y="260" as="sourcePoint" />
            <mxPoint x="450" y="210" as="targetPoint" />
            <mxPoint as="offset" />
          </mxGeometry>
        </mxCell>
        <mxCell id="E4Dh_VUF76rLLpkzOomr-21" value="GND" style="endArrow=none;html=1;rounded=0;entryX=0;entryY=0.75;entryDx=0;entryDy=0;exitX=0.409;exitY=-0.028;exitDx=0;exitDy=0;exitPerimeter=0;" edge="1" parent="1" source="E4Dh_VUF76rLLpkzOomr-2" target="E4Dh_VUF76rLLpkzOomr-4">
          <mxGeometry width="50" height="50" relative="1" as="geometry">
            <mxPoint x="400" y="260" as="sourcePoint" />
            <mxPoint x="450" y="210" as="targetPoint" />
            <Array as="points">
              <mxPoint x="410" y="140" />
              <mxPoint x="460" y="140" />
              <mxPoint x="460" y="110" />
            </Array>
          </mxGeometry>
        </mxCell>
        <mxCell id="E4Dh_VUF76rLLpkzOomr-22" value="VCC" style="endArrow=none;html=1;rounded=0;exitX=0.5;exitY=0;exitDx=0;exitDy=0;entryX=0.5;entryY=1;entryDx=0;entryDy=0;" edge="1" parent="1" source="E4Dh_VUF76rLLpkzOomr-2" target="E4Dh_VUF76rLLpkzOomr-4">
          <mxGeometry width="50" height="50" relative="1" as="geometry">
            <mxPoint x="400" y="260" as="sourcePoint" />
            <mxPoint x="450" y="210" as="targetPoint" />
            <Array as="points">
              <mxPoint x="450" y="170" />
              <mxPoint x="540" y="170" />
            </Array>
          </mxGeometry>
        </mxCell>
        <mxCell id="E4Dh_VUF76rLLpkzOomr-23" value="PWM PIN 5" style="endArrow=none;html=1;rounded=0;exitX=0.685;exitY=-0.016;exitDx=0;exitDy=0;exitPerimeter=0;entryX=0;entryY=0.5;entryDx=0;entryDy=0;" edge="1" parent="1" source="E4Dh_VUF76rLLpkzOomr-1" target="E4Dh_VUF76rLLpkzOomr-3">
          <mxGeometry x="0.2997" width="50" height="50" relative="1" as="geometry">
            <mxPoint x="400" y="260" as="sourcePoint" />
            <mxPoint x="450" y="210" as="targetPoint" />
            <Array as="points">
              <mxPoint x="192" y="160" />
              <mxPoint x="240" y="160" />
              <mxPoint x="240" y="40" />
            </Array>
            <mxPoint as="offset" />
          </mxGeometry>
        </mxCell>
        <mxCell id="E4Dh_VUF76rLLpkzOomr-24" value="PWM PIN 4" style="endArrow=none;html=1;rounded=0;entryX=0;entryY=0.5;entryDx=0;entryDy=0;exitX=0.61;exitY=-0.062;exitDx=0;exitDy=0;exitPerimeter=0;" edge="1" parent="1" source="E4Dh_VUF76rLLpkzOomr-1" target="E4Dh_VUF76rLLpkzOomr-4">
          <mxGeometry x="0.7509" width="50" height="50" relative="1" as="geometry">
            <mxPoint x="400" y="260" as="sourcePoint" />
            <mxPoint x="450" y="210" as="targetPoint" />
            <Array as="points">
              <mxPoint x="183" y="150" />
              <mxPoint x="370" y="150" />
              <mxPoint x="420" y="90" />
            </Array>
            <mxPoint as="offset" />
          </mxGeometry>
        </mxCell>
        <mxCell id="cLQzElCly-99KTa7Fn-c-2" value="D2" style="text;html=1;strokeColor=none;fillColor=none;align=center;verticalAlign=middle;whiteSpace=wrap;rounded=0;" vertex="1" parent="1">
          <mxGeometry x="80" y="60" width="60" height="30" as="geometry" />
        </mxCell>
        <mxCell id="cLQzElCly-99KTa7Fn-c-3" value="D3" style="text;html=1;strokeColor=none;fillColor=none;align=center;verticalAlign=middle;whiteSpace=wrap;rounded=0;" vertex="1" parent="1">
          <mxGeometry x="40" y="80" width="60" height="30" as="geometry" />
        </mxCell>
      </root>
    </mxGraphModel>
  </diagram>
  <diagram id="2HzJ6VlB92_JcA2GfheW" name="Page-2">
    <mxGraphModel dx="828" dy="498" grid="1" gridSize="10" guides="1" tooltips="1" connect="1" arrows="1" fold="1" page="1" pageScale="1" pageWidth="850" pageHeight="1100" math="0" shadow="0">
      <root>
        <mxCell id="0" />
        <mxCell id="1" parent="0" />
      </root>
    </mxGraphModel>
  </diagram>
</mxfile>
